HIERARCHY
ROOT Hips
{
	OFFSET 0.00000 0.00000 0.00000
	CHANNELS 6 Xposition Yposition Zposition Zrotation Yrotation Xrotation 
	JOINT LHipJoint
	{
		OFFSET 0 0 0
		CHANNELS 3 Zrotation Yrotation Xrotation
		JOINT LeftHip
		{
			OFFSET 1.55766 -1.60504 1.11378
			CHANNELS 3 Zrotation Yrotation Xrotation
			JOINT LeftKnee
			{
				OFFSET 2.29047 -6.29302 0.00000
				CHANNELS 3 Zrotation Yrotation Xrotation
				JOINT LeftAnkle
				{
					OFFSET 2.52265 -6.93093 0.00000
					CHANNELS 3 Zrotation Yrotation Xrotation
					JOINT LeftToe
					{
						OFFSET 0.17633 -0.48446 2.02656
						CHANNELS 3 Zrotation Yrotation Xrotation
						End Site
						{
							OFFSET 0.00000 -0.00000 1.04989
						}
					}
				}
			}
		}
	}
	JOINT RHipJoint
	{
		OFFSET 0 0 0
		CHANNELS 3 Zrotation Yrotation Xrotation
		JOINT RightHip
		{
			OFFSET -1.48599 -1.60504 1.11378
			CHANNELS 3 Zrotation Yrotation Xrotation
			JOINT RightKnee
			{
				OFFSET -2.27280 -6.24448 0.00000
				CHANNELS 3 Zrotation Yrotation Xrotation
				JOINT RightAnkle
				{
					OFFSET -2.50834 -6.89161 0.00000
					CHANNELS 3 Zrotation Yrotation Xrotation
					JOINT RightToe
					{
						OFFSET -0.26967 -0.74090 2.08741
						CHANNELS 3 Zrotation Yrotation Xrotation
						End Site
						{
							OFFSET -0.00000 -0.00000 1.10614
						}
					}
				}
			}
		}
	}
	JOINT lowerback
	{
		OFFSET 0 0 0
		CHANNELS 3 Zrotation Yrotation Xrotation
		JOINT Chest
		{
			OFFSET 0.06481 2.02437 -0.08472
			CHANNELS 3 Zrotation Yrotation Xrotation
			JOINT Chest2
			{
				OFFSET 0.00015 1.96711 0.18069
				CHANNELS 3 Zrotation Yrotation Xrotation
				JOINT lowerneck
				{
					OFFSET 0 0 0
					CHANNELS 3 Zrotation Yrotation Xrotation
					JOINT Neck
					{
						OFFSET -0.29961 1.68293 -0.13041
						CHANNELS 3 Zrotation Yrotation Xrotation
						JOINT Head
						{
							OFFSET 0.59697 1.61501 -0.14669
							CHANNELS 3 Zrotation Yrotation Xrotation
							End Site
							{
								OFFSET 0.22973 1.74906 -0.10148
							}
						}
					}
				}
				JOINT LeftCollar
				{
					OFFSET 0 0 0
					CHANNELS 3 Zrotation Yrotation Xrotation
					JOINT LeftShoulder
					{
						OFFSET 3.37968 1.02893 0.31147
CHANNELS 3 Zrotation Xrotation Yrotation
						JOINT LeftElbow
						{
OFFSET 0 -5.198070 -0.000000
CHANNELS 3 Zrotation Xrotation Yrotation
							JOINT LeftWrist
							{
OFFSET 0 -3.093700 -0.000000
CHANNELS 3 Zrotation Xrotation Yrotation
								JOINT lhand
								{
									OFFSET 0 0 0
CHANNELS 3 Zrotation Xrotation Yrotation
									JOINT LFingers
									{
OFFSET 0 -0.672630 -0.000000
CHANNELS 3 Zrotation Xrotation Yrotation
										End Site
										{
OFFSET 0 -0.542290 -0.000000
										}
									}
								}
								JOINT LThumb
								{
OFFSET 0 0.000000 0.000000
CHANNELS 3 Zrotation Xrotation Yrotation
									End Site
									{
OFFSET 0 -0.550570 0.550570
									}
								}
							}
						}
					}
				}
				JOINT RightCollar
				{
					OFFSET 0 0 0
					CHANNELS 3 Zrotation Yrotation Xrotation
					JOINT RightShoulder
					{
						OFFSET -3.38254 0.96355 -0.16120
CHANNELS 3 Zrotation Xrotation Yrotation
						JOINT RightElbow
						{
OFFSET 0 -5.452220 -0.000000
CHANNELS 3 Zrotation Xrotation Yrotation
							JOINT RightWrist
							{
OFFSET 0 -3.012840 -0.000000
CHANNELS 3 Zrotation Xrotation Yrotation
								JOINT rhand
								{
									OFFSET 0 0 0
CHANNELS 3 Zrotation Xrotation Yrotation
									JOINT RFingers
									{
OFFSET 0 -0.622300 -0.000000
CHANNELS 3 Zrotation Xrotation Yrotation
										End Site
										{
OFFSET 0 -0.501710 -0.000000
										}
									}
								}
								JOINT RThumb
								{
OFFSET 0 0.000000 0.000000
CHANNELS 3 Zrotation Xrotation Yrotation
									End Site
									{
OFFSET 0 -0.509370 0.509370
									}
								}
							}
						}
					}
				}
			}
		}
	}
}
MOTION
Frames: 12
Frame Time: 0.008333333333333333
-7.096238 16.353304 3.805084 1.263751 9.100238 364.836329 0.000000 0.000000 0.000000 -22.950732 -5.692202 -11.201796 2.538789 9.908140 28.679678 0.306350 -19.031432 -15.918066 0.013786 0.754586 2.073830 0.000000 0.000000 0.000000 10.593028 22.288371 -21.248247 -3.697401 -11.746510 34.841122 1.373992 25.830512 -7.752039 -0.693837 5.324785 -14.837316 -2.203409 0.205701 0.460062 -1.064622 0.130856 -6.627302 0.110715 0.166069 -7.164827 -32.650734 -9.313896 15.485487 33.492479 -20.491738 8.321486 16.829746 -11.713068 7.316853 0.000000 0.000000 0.000000 9.165452 10.358634 -34.564062 26.315505 -37.518447 9.079158 14.443424 -44.557986 11.934079 0.000000 0.000000 0.000000 -7.125000 0.000000 0.000000 -8.886760 17.755551 -5.824097 0.000000 0.000000 0.000000 0.253046 7.232117 11.885561 -13.169493 -21.535031 -2.515181 -8.440158 23.222539 3.428237 0.000000 0.000000 0.000000 7.125000 0.000000 0.000000 14.716384 33.173994 4.390030
-7.180075 16.377226 4.118625 0.810876 10.812568 364.970943 0.000000 0.000000 0.000000 -22.112964 -7.390553 -9.465367 2.471443 9.785770 28.285688 0.422559 -18.386404 -16.459852 0.000111 -0.009712 -0.026769 0.000000 0.000000 0.000000 12.333050 19.846102 -20.183346 -3.621510 -11.638949 34.466326 1.018571 24.977678 -9.946747 -0.732863 5.469490 -15.252639 -1.356640 0.598129 -0.463916 -1.201085 0.708373 -6.891764 -0.534714 0.399532 -6.908562 -32.713562 -8.928411 15.515374 33.330569 -19.997389 8.878585 16.912472 -11.469464 7.268943 0.000000 0.000000 0.000000 8.725219 11.389699 -33.588177 26.546187 -37.743046 9.219949 14.611965 -44.626306 12.545038 0.000000 0.000000 0.000000 -7.125000 0.000000 0.000000 -8.763240 17.122702 -5.864194 0.000000 0.000000 0.000000 0.332932 7.482810 13.112020 -12.658205 -20.784264 -2.330653 -8.060770 24.077075 3.245718 0.000000 0.000000 0.000000 7.125000 0.000000 0.000000 14.984965 32.981118 4.547424
-7.255902 16.403570 4.384434 -0.170898 12.141178 365.371743 0.000000 0.000000 0.000000 -20.713476 -9.356251 -8.725672 2.540094 9.910342 28.686958 0.574519 -17.351898 -17.107376 0.016525 -0.826311 -2.271010 0.000000 0.000000 0.000000 14.216432 18.230135 -19.619184 -3.493055 -11.453360 33.824576 0.853943 24.572600 -10.926813 -0.703132 5.359738 -14.937517 -0.021917 1.212092 -1.394243 -1.178380 1.589204 -7.193925 -1.286940 0.762240 -6.659415 -32.661539 -8.536724 15.378936 33.362906 -19.373978 9.131916 17.060326 -11.141152 7.118852 0.000000 0.000000 0.000000 7.797220 12.516502 -31.675393 26.219308 -37.424442 9.020643 15.197345 -45.105701 12.904298 0.000000 0.000000 0.000000 -7.125000 0.000000 0.000000 -8.356891 16.714107 -5.661471 0.000000 0.000000 0.000000 0.058808 7.653966 15.345657 -12.291950 -20.241044 -2.202258 -7.677379 24.812600 2.845602 0.000000 0.000000 0.000000 7.125000 0.000000 0.000000 15.217461 32.576769 4.776555
-7.329217 16.415944 4.599143 -0.860808 13.484861 365.851269 0.000000 0.000000 0.000000 -19.636640 -11.262956 -8.547283 2.688606 10.173008 29.538806 0.694624 -16.389230 -17.595731 0.041462 -1.313616 -3.612127 0.000000 0.000000 0.000000 15.556768 16.582766 -19.570029 -3.419378 -11.344825 33.451752 0.782452 24.639490 -11.598610 -0.632912 5.090260 -14.166223 0.941576 1.910963 -1.886875 -1.234217 2.551502 -7.399638 -1.909776 1.185428 -6.534627 -32.620703 -8.236679 14.929740 33.772529 -18.819116 9.248894 17.365556 -10.827580 7.068247 0.000000 0.000000 0.000000 6.760088 13.528885 -29.695911 25.473009 -36.683435 8.570878 16.304975 -46.049567 12.710192 0.000000 0.000000 0.000000 -7.125000 0.000000 0.000000 -7.591635 16.828467 -5.114120 0.000000 0.000000 0.000000 -0.535220 7.843898 18.658399 -12.338134 -20.309868 -2.218281 -7.372640 24.627791 2.139197 0.000000 0.000000 0.000000 7.125000 0.000000 0.000000 15.334962 31.879035 5.083396
-7.403741 16.416877 4.770272 -1.495710 15.515786 366.147604 0.000000 0.000000 0.000000 -18.630245 -12.887387 -8.880144 2.943542 10.602743 30.951936 0.781897 -15.730722 -17.996666 0.059594 -1.575183 -4.332967 0.000000 0.000000 0.000000 16.846743 14.515643 -19.493568 -3.337143 -11.221796 33.031603 0.597316 24.235512 -12.709544 -0.577465 4.866183 -13.527341 1.749028 2.448352 -1.775868 -1.242902 3.297868 -7.499334 -2.403331 1.508869 -6.634920 -32.533625 -7.977668 14.620013 34.283760 -18.264015 8.911695 17.690668 -10.517888 6.857866 0.000000 0.000000 0.000000 5.858058 14.464831 -28.229064 24.308953 -35.488906 7.885434 17.358089 -46.849778 12.320591 0.000000 0.000000 0.000000 -7.125000 0.000000 0.000000 -6.858968 17.147944 -4.564854 0.000000 0.000000 0.000000 -1.435611 8.121972 22.431020 -12.786551 -20.973544 -2.376419 -8.440040 23.474961 1.485450 0.000000 0.000000 0.000000 7.125000 0.000000 0.000000 14.395625 31.273413 4.970002
-7.480784 16.402360 4.902652 -2.648100 18.533445 366.281361 0.000000 0.000000 0.000000 -16.981520 -13.711246 -10.891060 3.557604 11.546788 34.147505 0.830181 -15.616372 -18.321471 0.061877 -1.604430 -4.413652 0.000000 0.000000 0.000000 18.679531 12.314414 -19.446622 -3.234435 -11.065220 32.500223 0.227020 22.788802 -14.366267 -0.568674 4.829506 -13.423019 3.067237 2.801334 -1.186003 -1.137667 3.839558 -7.721925 -3.089205 1.691180 -7.118387 -32.407540 -7.774295 14.529596 34.842391 -17.805058 8.368047 18.017710 -10.271487 6.585070 0.000000 0.000000 0.000000 5.486941 15.398520 -27.874675 22.833180 -33.905713 7.045077 17.611390 -46.772738 11.472798 0.000000 0.000000 0.000000 -7.125000 0.000000 0.000000 -6.676246 18.006823 -4.314812 0.000000 0.000000 0.000000 -2.406941 8.717903 25.532452 -13.437180 -21.924424 -2.614275 -9.627111 22.269276 1.280178 0.000000 0.000000 0.000000 7.125000 0.000000 0.000000 13.438747 31.103091 4.678955
-7.560541 16.365161 5.004272 -4.368594 22.513589 366.262888 0.000000 0.000000 0.000000 -14.691697 -12.504413 -15.512668 4.746223 13.089737 39.709502 0.777860 -16.021682 -18.080801 0.052735 -1.482108 -4.076417 0.000000 0.000000 0.000000 20.951252 9.738176 -19.944892 -3.166506 -10.959838 32.144574 -0.135800 21.165778 -15.948243 -0.544357 4.726814 -13.131098 4.877584 2.958534 -0.532845 -0.875145 4.177123 -7.944717 -3.885920 1.735951 -7.628488 -32.249891 -7.713735 14.264857 35.364384 -17.482085 7.778862 18.274356 -10.074052 6.380778 0.000000 0.000000 0.000000 5.529278 16.126997 -28.192915 21.307737 -32.185331 6.213311 16.644011 -44.818450 10.166584 0.000000 0.000000 0.000000 -7.125000 0.000000 0.000000 -7.360707 19.423873 -4.530865 0.000000 0.000000 0.000000 -3.447442 9.275078 27.264951 -14.061678 -22.822745 -2.852033 -10.627386 21.434105 0.976499 0.000000 0.000000 0.000000 7.125000 0.000000 0.000000 12.615371 30.826396 4.464944
-7.640136 16.317439 5.077043 -6.780532 27.169444 365.717988 0.000000 0.000000 0.000000 -12.187950 -9.658708 -21.791085 6.495185 14.889589 46.934477 0.762423 -14.589329 -17.412417 0.096805 -2.005011 -5.519517 0.000000 0.000000 0.000000 23.715766 6.268189 -20.848301 -3.065589 -10.800402 31.609768 -0.320679 20.417456 -16.851678 -0.474364 4.417194 -12.253539 7.190522 2.990693 0.363583 -0.397595 4.445309 -8.164462 -4.750285 1.701746 -8.275633 -32.138787 -7.694789 14.122677 35.906997 -17.198065 6.907441 18.533580 -9.908910 6.096520 0.000000 0.000000 0.000000 5.666790 16.746361 -28.597875 19.910333 -30.533926 5.485807 15.131343 -41.869554 9.256374 0.000000 0.000000 0.000000 -7.125000 0.000000 0.000000 -8.453061 20.444800 -5.021965 0.000000 0.000000 0.000000 -4.621886 9.851914 27.539967 -14.639196 -23.641035 -3.079846 -10.866548 20.560563 0.925759 0.000000 0.000000 0.000000 7.125000 0.000000 0.000000 12.421851 30.781214 4.407253
-7.716045 16.266262 5.134410 -9.439404 32.171508 364.406516 0.000000 0.000000 0.000000 -10.489941 -6.364821 -28.098704 8.433254 16.427425 54.106507 0.832231 -10.243781 -16.744876 0.256519 -3.255983 -8.992474 0.000000 0.000000 0.000000 26.533769 2.556610 -21.543352 -2.950143 -10.613926 30.988442 -0.487645 19.595040 -17.606063 -0.425970 4.188867 -11.608490 9.476317 2.955317 1.689548 0.138672 4.731516 -8.285011 -5.562607 1.656350 -9.081099 -31.972347 -7.805879 14.326256 36.425990 -17.104454 5.656829 18.731324 -9.869558 5.711798 0.000000 0.000000 0.000000 5.870392 17.343325 -28.975063 18.959160 -29.367872 5.010793 14.131527 -39.618017 8.734294 0.000000 0.000000 0.000000 -7.125000 0.000000 0.000000 -9.184673 21.025552 -5.345719 0.000000 0.000000 0.000000 -5.707599 10.523652 26.062901 -14.979225 -24.117141 -3.217439 -11.109996 20.075425 0.857105 0.000000 0.000000 0.000000 7.125000 0.000000 0.000000 12.222825 30.718153 4.352594
-7.787263 16.217460 5.205688 -11.798771 37.496194 362.580735 0.000000 0.000000 0.000000 -10.239473 -3.014876 -33.800626 10.026485 17.423958 59.575764 0.900497 -6.483209 -16.929367 0.393694 -4.028670 -11.157386 0.000000 0.000000 0.000000 28.824222 -0.472404 -21.753771 -2.875598 -10.490852 30.581456 -0.782576 17.559389 -18.757469 -0.446776 4.288162 -11.888822 10.916344 2.754752 3.170273 0.676718 4.815041 -8.234525 -5.891369 1.565181 -9.875139 -31.837447 -8.081015 14.595527 36.879017 -17.248115 4.303608 18.855766 -9.961132 5.386675 0.000000 0.000000 0.000000 5.973781 17.878047 -29.079575 18.533672 -28.835088 4.803839 14.050478 -39.072587 8.346322 0.000000 0.000000 0.000000 -7.125000 0.000000 0.000000 -9.257176 21.423330 -5.304568 0.000000 0.000000 0.000000 -6.766590 10.893154 23.256731 -14.744626 -23.789135 -3.122242 -11.409978 20.578360 0.782376 0.000000 0.000000 0.000000 7.125000 0.000000 0.000000 11.978993 30.649849 4.282266
-7.829953 16.191104 5.315617 -13.679640 43.291492 360.721037 0.000000 0.000000 0.000000 -11.409313 -0.337512 -38.686667 10.891195 17.881387 62.427774 0.947883 -4.719510 -17.423645 0.389389 -4.007056 -11.096401 0.000000 0.000000 0.000000 30.364954 -3.295140 -21.734930 -2.801737 -10.366925 30.173238 -1.108151 14.844875 -20.115815 -0.533562 4.680466 -12.999343 11.336845 2.353415 4.153005 1.163272 4.493972 -8.065732 -5.628486 1.375755 -10.358685 -31.609946 -8.461507 14.934253 37.197453 -17.526139 2.914676 18.862830 -10.125393 5.070888 0.000000 0.000000 0.000000 5.927818 18.478646 -28.778528 18.564377 -28.873804 4.818644 15.250311 -40.243713 8.415863 0.000000 0.000000 0.000000 -7.125000 0.000000 0.000000 -8.390881 21.298952 -4.820787 0.000000 0.000000 0.000000 -7.712348 10.898566 19.155096 -13.974952 -22.698853 -2.818535 -11.923991 22.692062 0.917947 0.000000 0.000000 0.000000 7.125000 0.000000 0.000000 11.594274 30.795788 4.098129
-7.825405 16.172613 5.455420 -15.642494 49.568473 358.878444 0.000000 0.000000 0.000000 -12.936456 0.644985 -42.881616 11.073272 17.970756 63.019271 0.951993 -3.176473 -17.645650 0.338480 -3.738456 -10.342102 0.000000 0.000000 0.000000 31.593406 -6.144123 -21.973627 -2.725566 -10.236872 29.747389 -1.380042 12.041490 -21.413754 -0.591359 4.923220 -13.689803 11.355443 1.841483 4.311765 1.551482 3.875554 -7.971913 -5.159497 1.095479 -10.488759 -31.372517 -8.831165 15.658908 37.604883 -17.865035 1.417176 18.947074 -10.366738 4.696034 0.000000 0.000000 0.000000 5.944130 19.014426 -28.001801 18.627628 -28.953346 4.849281 16.542157 -41.520114 8.674108 0.000000 0.000000 0.000000 -7.125000 0.000000 0.000000 -7.454393 20.969944 -4.328986 0.000000 0.000000 0.000000 -8.342301 10.921379 13.903020 -13.029593 -21.330430 -2.464127 -12.413801 25.559708 1.331917 0.000000 0.000000 0.000000 7.125000 0.000000 0.000000 11.261792 31.221515 3.859166
